<?xml version="1.0" standalone="no"?>
<!DOCTYPE svg PUBLIC "-//W3C//DTD SVG 20010904//EN"
 "http://www.w3.org/TR/2001/REC-SVG-20010904/DTD/svg10.dtd">
<svg version="1.0" xmlns="http://www.w3.org/2000/svg"
 width="263.000000pt" height="244.000000pt" viewBox="0 0 263.000000 244.000000"
 preserveAspectRatio="xMidYMid meet">

<g transform="translate(0.000000,244.000000) scale(0.100000,-0.100000)"
fill="#000000" stroke="none">
<path d="M635 1640 c-286 -36 -507 -234 -535 -481 -18 -162 14 -299 97 -410
85 -112 193 -180 353 -220 120 -31 311 -24 420 15 105 37 177 84 232 152 56
68 76 117 57 140 -16 20 -295 154 -320 154 -11 0 -31 -17 -47 -39 -43 -61 -79
-81 -147 -81 -76 0 -136 33 -166 92 -18 34 -20 55 -17 128 3 76 6 91 30 122
58 76 171 97 244 45 21 -15 50 -43 64 -62 14 -19 32 -35 40 -35 26 0 320 148
326 165 19 49 -104 195 -213 253 -101 53 -276 79 -418 62z"/>
</g>
</svg>
